<?xml version="1.0" standalone="no"?>
<!DOCTYPE svg PUBLIC "-//W3C//DTD SVG 20010904//EN"
 "http://www.w3.org/TR/2001/REC-SVG-20010904/DTD/svg10.dtd">
<svg version="1.0" xmlns="http://www.w3.org/2000/svg"
 width="500.000000pt" height="500.000000pt" viewBox="0 0 500.000000 500.000000"
 preserveAspectRatio="xMidYMid meet">

<g transform="translate(0.000000,500.000000) scale(0.100000,-0.100000)"
fill="#000000" stroke="none">
<path d="M1640 3302 c0 -319 -3 -613 -6 -655 l-7 -75 -47 5 c-62 7 -134 -9
-214 -47 -57 -26 -70 -29 -135 -23 -61 5 -71 9 -71 25 0 12 -4 16 -11 12 -7
-4 -19 2 -28 13 -14 18 -19 18 -41 7 -15 -8 -19 -14 -10 -14 11 -1 10 -4 -5
-16 -19 -14 -19 -16 -2 -28 45 -34 6 -50 -96 -41 -65 6 -75 5 -100 -15 -15
-12 -27 -30 -25 -39 3 -18 -49 -81 -67 -81 -7 0 -17 -6 -22 -12 -12 -15 -25
-89 -15 -85 11 3 14 -7 6 -27 -9 -23 12 -37 43 -30 13 4 29 0 38 -9 21 -22 19
-24 -17 -20 -18 2 -26 0 -18 -3 34 -15 41 -26 28 -42 -10 -13 -10 -14 0 -8 6
4 12 2 12 -3 0 -16 16 -13 33 4 16 16 143 20 152 5 3 -5 14 -6 25 -3 23 6 28
-15 8 -35 -9 -9 -9 -12 0 -12 13 0 82 -69 82 -82 0 -4 5 -8 11 -8 6 0 8 9 4
20 -5 16 -2 20 19 20 27 0 34 -18 15 -37 -22 -22 51 -94 85 -85 4 2 13 -1 20
-6 6 -4 27 -8 46 -7 46 3 83 -14 77 -35 -2 -9 4 -22 13 -28 14 -8 17 -7 16 6
0 9 7 18 17 20 16 3 18 -1 12 -26 -5 -25 -2 -33 17 -43 13 -6 27 -18 31 -26 6
-10 25 -13 63 -12 41 2 57 -2 67 -15 16 -22 89 -47 101 -35 6 5 17 2 28 -8 18
-16 22 -16 198 -8 30 1 71 -1 91 -6 20 -5 66 -11 103 -13 63 -4 70 -7 101 -40
26 -29 34 -33 39 -20 3 8 11 12 16 9 6 -4 17 -1 26 5 11 10 23 9 58 -4 25 -10
57 -14 74 -11 21 3 42 -1 64 -15 37 -23 68 -26 68 -7 1 29 31 52 73 56 4 1 5
11 2 24 -4 15 -1 28 9 36 14 12 13 15 -7 31 -12 10 -33 20 -47 22 -30 4 -37
24 -11 33 23 7 74 -16 93 -43 7 -10 32 -35 55 -56 37 -33 44 -36 62 -24 16 10
30 10 64 1 35 -10 56 -9 108 3 106 25 149 28 149 11 0 -22 69 -12 94 13 17 17
18 22 7 44 -14 26 -8 46 13 46 7 0 29 11 48 23 19 13 58 27 86 31 69 9 174 57
195 89 28 42 59 67 86 67 13 0 22 3 18 6 -15 16 32 45 77 47 25 1 46 6 46 10
0 5 5 5 12 1 7 -5 8 -3 3 5 -4 7 -16 10 -27 8 -13 -4 -18 -1 -15 8 3 7 -1 22
-9 33 -13 20 -12 22 13 35 17 9 49 13 81 12 56 -3 50 -9 124 99 3 5 23 11 42
12 20 2 41 6 45 9 14 8 101 -7 95 -16 -3 -5 -3 -9 0 -9 3 0 12 13 21 30 8 16
27 33 40 36 14 3 25 12 25 18 0 25 26 66 42 66 9 0 19 4 23 9 6 11 -26 23 -70
27 -16 1 -57 5 -90 8 -33 3 -61 10 -63 15 -6 17 -62 14 -62 -3 0 -23 -22 -31
-36 -12 -7 10 -15 13 -18 7 -3 -5 0 -12 6 -15 7 -3 0 -3 -17 1 -16 3 -36 14
-44 24 -7 11 -20 19 -27 19 -8 0 -14 4 -14 9 0 6 -12 6 -32 0 -45 -12 -58 -11
-58 5 0 15 -29 26 -69 26 -25 0 -50 25 -51 51 0 22 -32 49 -58 49 -11 0 -23 8
-26 18 -4 10 -29 29 -56 41 -46 21 -50 25 -47 54 l2 32 -80 3 c-44 1 -101 2
-127 2 -40 -1 -58 7 -136 58 -74 49 -137 79 -291 140 -10 4 -12 1 -7 -9 4 -8
-6 0 -23 18 -62 66 -45 174 34 221 36 21 49 23 130 19 58 -3 117 -14 168 -30
55 -18 79 -22 82 -14 3 11 35 253 35 269 0 3 -9 8 -20 11 -11 3 -20 12 -20 20
0 19 -121 54 -237 69 -312 40 -542 -142 -547 -432 -1 -106 19 -169 83 -254 47
-62 47 -62 25 -73 -19 -9 -34 -5 -85 21 -55 27 -64 36 -77 74 -10 31 -18 42
-29 38 -8 -3 -98 -6 -199 -6 l-184 0 0 -285 0 -285 -150 0 c-143 0 -150 1
-150 20 0 13 -7 20 -20 20 -20 0 -20 7 -20 745 l0 745 308 0 c180 0 333 -5
367 -11 63 -12 144 -48 185 -83 14 -11 10 -4 -8 15 -19 20 -56 49 -83 63 -87
48 -155 56 -491 56 l-308 0 0 -578z m1768 -745 c68 -138 46 -322 -55 -454 -26
-34 -29 -43 -16 -43 9 0 24 7 33 15 16 14 21 12 60 -20 45 -38 60 -43 60 -21
0 26 43 68 63 61 20 -8 23 -25 4 -25 -8 0 -19 -12 -25 -26 -8 -16 -32 -34 -66
-49 -52 -23 -71 -39 -71 -60 0 -5 -10 -11 -22 -13 -15 -2 -23 2 -23 12 0 25
-21 30 -27 6 -4 -17 -11 -21 -30 -17 -39 7 -66 -22 -65 -71 1 -47 -16 -69 -56
-77 -15 -3 -45 -10 -67 -16 -22 -6 -68 -16 -102 -23 -60 -13 -63 -13 -84 10
-12 13 -21 26 -18 28 2 2 29 11 59 19 40 12 58 13 67 5 10 -8 17 -8 25 0 7 7
25 12 40 12 22 0 31 7 43 36 8 20 15 44 15 53 0 15 39 34 100 48 14 3 33 12
42 20 9 8 21 12 26 9 12 -7 26 25 15 35 -18 18 -62 11 -125 -20 -79 -38 -211
-65 -284 -57 -50 6 -51 5 -70 -29 -15 -27 -16 -39 -8 -53 9 -13 8 -23 -5 -45
-22 -38 -47 -42 -117 -18 -37 12 -63 16 -68 10 -16 -15 -29 -10 -23 10 4 17 2
17 -27 4 -17 -8 -38 -18 -46 -22 -8 -5 -24 -5 -35 -1 -43 17 -133 31 -190 30
-136 -2 -140 -1 -158 30 -21 35 -22 83 -2 100 8 7 15 18 15 24 -1 17 -70 66
-94 66 -12 0 -31 11 -44 25 -13 13 -33 26 -45 28 -12 2 -2 5 23 6 28 0 61 -7
85 -19 22 -11 49 -20 61 -20 16 0 28 -11 41 -37 22 -47 55 -54 89 -22 34 32
32 59 -6 59 -24 0 -30 4 -30 21 0 16 4 19 18 13 9 -4 33 -8 52 -8 30 -1 35 2
35 22 0 13 10 28 22 35 11 7 30 18 42 25 21 13 22 12 16 -21 -6 -30 -4 -36 13
-42 12 -3 22 -13 24 -22 3 -16 90 -53 203 -85 102 -29 283 -36 374 -13 75 18
166 67 218 117 66 64 123 209 123 314 0 74 -33 170 -80 234 l-41 55 48 -51
c26 -28 58 -71 71 -97z m-463 15 c45 -17 90 -39 100 -47 21 -16 -24 -1 -147
51 -58 24 -178 91 -178 99 0 2 33 -13 73 -34 39 -20 108 -51 152 -69z m-785
64 c0 -8 -9 -18 -20 -21 -11 -3 -20 -15 -20 -26 0 -10 -7 -19 -15 -19 -12 0
-13 4 -6 18 6 10 7 28 4 40 -5 19 -1 22 26 22 20 0 31 -5 31 -14z m-530 -125
c0 -22 -36 -32 -70 -19 -28 10 -22 18 22 28 48 12 48 12 48 -9z m-495 -21 c-3
-5 -11 -10 -16 -10 -6 0 -7 5 -4 10 3 6 11 10 16 10 6 0 7 -4 4 -10z m1778
-61 c12 -6 37 -27 56 -47 31 -33 32 -37 16 -48 -40 -29 -199 -30 -217 -2 -14
24 -9 48 11 48 27 0 38 20 17 32 -9 5 -16 13 -16 18 0 14 107 12 133 -1z
m-440 -56 c3 -5 2 -35 -2 -68 l-6 -60 -43 -9 c-29 -6 -51 -5 -67 2 -27 12 -34
32 -12 32 7 0 22 6 32 14 18 13 18 17 5 40 -8 16 -10 30 -4 35 18 17 89 27 97
14z m-1598 -93 c3 -5 -3 -10 -15 -10 -12 0 -18 5 -15 10 3 6 10 10 15 10 5 0
12 -4 15 -10z m689 -29 c7 -11 -22 -37 -53 -46 -15 -5 -26 -3 -32 6 -7 11 -11
11 -21 1 -7 -7 -13 -18 -13 -25 0 -15 -34 -22 -47 -9 -13 13 7 36 39 46 12 4
24 13 27 21 6 17 91 22 100 6z m-202 -13 c-8 -8 -8 -15 -1 -24 11 -14 6 -18
-34 -28 -24 -6 -28 -4 -25 10 2 10 17 25 33 35 36 21 43 23 27 7z m589 -148
c11 0 16 -5 13 -13 -2 -7 4 -22 16 -32 11 -10 20 -29 20 -42 0 -21 -4 -24 -27
-21 -25 3 -28 7 -29 42 -1 29 -8 45 -25 59 -17 15 -19 18 -6 14 10 -4 27 -7
38 -7z m-716 -110 c3 -5 -1 -10 -10 -10 -9 0 -13 5 -10 10 3 6 8 10 10 10 2 0
7 -4 10 -10z m715 -30 c0 -5 -7 -10 -15 -10 -8 0 -15 5 -15 10 0 6 7 10 15 10
8 0 15 -4 15 -10z m-3 -36 c-3 -3 -12 -4 -19 -1 -8 3 -5 6 6 6 11 1 17 -2 13
-5z m1103 -87 c0 -16 -35 -1 -38 16 -3 16 -1 17 17 5 12 -7 21 -17 21 -21z"/>
<path d="M2150 2035 c7 -8 20 -15 29 -15 13 1 13 3 -3 15 -26 19 -42 19 -26 0z"/>
<path d="M2557 1923 c-19 -3 -27 -10 -25 -21 2 -11 -5 -18 -19 -20 -13 -2 -23
1 -23 6 0 14 -56 32 -96 32 -29 0 -34 -3 -34 -24 0 -31 45 -49 92 -35 18 5 54
9 79 9 26 0 59 6 73 14 26 13 76 14 117 1 10 -4 19 -2 19 3 0 5 -28 14 -62 20
-35 5 -70 12 -78 15 -8 2 -28 2 -43 0z"/>
<path d="M2346 3447 c9 -55 -12 -119 -53 -159 l-34 -33 -125 -3 c-114 -3 -124
-5 -124 -23 0 -18 9 -19 134 -19 122 0 136 2 167 23 46 31 69 80 69 148 0 43
-5 63 -20 80 l-20 24 6 -38z"/>
<path d="M1125 2599 c-4 -6 -5 -13 -2 -16 7 -7 27 6 27 18 0 12 -17 12 -25 -2z"/>
<path d="M3840 2480 c0 -5 7 -10 16 -10 8 0 12 5 9 10 -3 6 -10 10 -16 10 -5
0 -9 -4 -9 -10z"/>
<path d="M4166 2191 c-3 -5 1 -11 9 -15 8 -3 15 -1 15 4 0 13 -18 22 -24 11z"/>
<path d="M3860 2019 c0 -5 5 -7 10 -4 6 3 10 8 10 11 0 2 -4 4 -10 4 -5 0 -10
-5 -10 -11z"/>
</g>
</svg>
